<?xml version="1.0" encoding="utf-8"?>
<!-- Generator: Adobe Illustrator 16.0.3, SVG Export Plug-In . SVG Version: 6.00 Build 0)  -->
<!DOCTYPE svg PUBLIC "-//W3C//DTD SVG 1.1//EN" "http://www.w3.org/Graphics/SVG/1.1/DTD/svg11.dtd">
<svg version="1.1" id="Warstwa_1" xmlns="http://www.w3.org/2000/svg" xmlns:xlink="http://www.w3.org/1999/xlink" x="0px" y="0px"
	 width="700px" height="400px" viewBox="0 0 700 400" enable-background="new 0 0 700 400" xml:space="preserve">
<g>
	<path d="M99.343,41.159h-3.367v4.681h-2.701V32.714h5.798c2.737,0,4.231,1.44,4.231,4.069
		C103.305,39.448,101.756,41.159,99.343,41.159z M98.497,34.964h-2.521v3.943h2.521c1.44,0,2.107-0.63,2.107-1.962
		C100.604,35.595,99.938,34.964,98.497,34.964z"/>
	<path d="M109.783,38.458c-1.476,0-2.214,0.738-2.214,2.215v5.167h-2.521v-9.723h2.521v1.909c0.54-1.314,1.548-2.07,2.701-2.07
		c0.072,0,0.162,0,0.306,0.018v2.557C110.233,38.476,110.053,38.458,109.783,38.458z"/>
	<path d="M120.439,41.645h-6.518c0.072,1.891,0.828,2.431,2.017,2.431c0.918,0,1.71-0.27,1.926-0.972h2.485
		c-0.558,1.909-2.323,2.899-4.501,2.899c-2.754,0-4.447-1.783-4.447-4.897c0-3.259,1.71-5.149,4.501-5.149
		c2.863,0,4.555,2.035,4.555,5.383L120.439,41.645z M115.866,37.881c-1.116,0-1.747,0.738-1.908,2.089h3.871
		C117.703,38.583,116.947,37.881,115.866,37.881z"/>
	<path d="M126.955,45.84h-2.646l-3.403-9.723h2.665l2.106,7.112l1.962-7.112h2.665L126.955,45.84z"/>
	<path d="M131.868,45.84v-9.723h2.521v9.723H131.868z M131.903,34.947v-2.521h2.521v2.521H131.903z"/>
	<path d="M145.1,41.645h-6.518c0.072,1.891,0.828,2.431,2.017,2.431c0.918,0,1.71-0.27,1.926-0.972h2.485
		c-0.558,1.909-2.323,2.899-4.501,2.899c-2.754,0-4.447-1.783-4.447-4.897c0-3.259,1.71-5.149,4.501-5.149
		c2.863,0,4.555,2.035,4.555,5.383L145.1,41.645z M140.526,37.881c-1.116,0-1.747,0.738-1.908,2.089h3.871
		C142.363,38.583,141.607,37.881,140.526,37.881z"/>
	<path d="M156.62,45.84h-2.61l-1.458-6.86l-1.549,6.86h-2.593l-2.737-9.723h2.611l1.548,6.806l1.477-6.806h2.521l1.458,6.806
		l1.476-6.806h2.611L156.62,45.84z"/>
</g>
<g>
	<path d="M324.853,46.056c-3.853,0-6.32-2.863-6.32-6.788c0-3.763,2.449-6.77,6.302-6.77c3.835,0,6.338,2.899,6.338,6.86
		C331.173,43.193,328.67,46.056,324.853,46.056z M324.853,34.803c-2.179,0-3.619,1.818-3.619,4.465c0,2.755,1.44,4.483,3.619,4.483
		c2.161,0,3.619-1.729,3.619-4.412C328.472,36.603,327.068,34.803,324.853,34.803z"/>
	<path d="M339.037,45.84v-1.278c-0.72,0.954-1.603,1.44-2.917,1.44c-2.071,0-3.259-1.225-3.259-3.367v-6.518h2.521v5.996
		c0,1.17,0.541,1.747,1.621,1.747c1.225,0,2.035-0.756,2.035-1.909v-5.834h2.521v9.723H339.037z"/>
	<path d="M346.776,45.912c-1.656,0-2.466-0.63-2.466-2.16V37.99h-1.243v-1.675h1.243v-2.611h2.521v2.611h1.404v1.675h-1.404v5.077
		c0,0.864,0.162,1.063,0.828,1.063c0.18,0,0.324-0.018,0.576-0.054v1.765C347.785,45.858,347.334,45.912,346.776,45.912z"/>
	<path d="M350.015,45.84V32.714h2.52V45.84H350.015z"/>
	<path d="M355.019,45.84v-9.723h2.521v9.723H355.019z M355.055,34.947v-2.521h2.521v2.521H355.055z"/>
	<path d="M366.127,45.84v-5.996c0-1.152-0.54-1.747-1.621-1.747c-1.224,0-2.034,0.756-2.034,1.909v5.833h-2.521v-9.723h2.521v1.405
		c0.721-1.081,1.603-1.566,2.917-1.566c2.07,0,3.259,1.224,3.259,3.367v6.518H366.127z"/>
	<path d="M379.249,41.645h-6.518c0.071,1.891,0.828,2.431,2.017,2.431c0.918,0,1.71-0.27,1.926-0.972h2.485
		c-0.559,1.909-2.323,2.899-4.502,2.899c-2.755,0-4.447-1.783-4.447-4.897c0-3.259,1.711-5.149,4.502-5.149
		c2.862,0,4.555,2.035,4.555,5.383L379.249,41.645z M374.676,37.881c-1.116,0-1.747,0.738-1.909,2.089h3.872
		C376.512,38.583,375.756,37.881,374.676,37.881z"/>
</g>
<path d="M125.747,253.192c-28.812,0-52.252-23.44-52.252-52.253c0-28.81,23.44-52.25,52.252-52.25
	c28.813,0,52.253,23.44,52.253,52.25C178,229.752,154.56,253.192,125.747,253.192z M125.747,157.193
	c-24.123,0-43.749,19.626-43.749,43.746c0,24.123,19.625,43.749,43.749,43.749c24.124,0,43.749-19.626,43.749-43.749
	C169.496,176.819,149.871,157.193,125.747,157.193z"/>
<path d="M344.326,250.857c28.031,0,50.836,22.805,50.836,50.836s-22.805,50.836-50.836,50.836c-28.03,0-50.835-22.805-50.835-50.836
	S316.296,250.857,344.326,250.857 M344.326,346.859c24.905,0,45.166-20.262,45.166-45.166s-20.261-45.166-45.166-45.166
	c-24.904,0-45.165,20.262-45.165,45.166S319.422,346.859,344.326,346.859 M344.326,249.439c-28.813,0-52.252,23.441-52.252,52.254
	s23.439,52.252,52.252,52.252s52.253-23.439,52.253-52.252S373.139,249.439,344.326,249.439L344.326,249.439z M344.326,345.441
	c-24.123,0-43.748-19.625-43.748-43.748s19.625-43.75,43.748-43.75s43.749,19.627,43.749,43.75S368.449,345.441,344.326,345.441
	L344.326,345.441z"/>
<path d="M344.326,196.076c-26.858,0-48.709-21.851-48.709-48.709s21.851-48.709,48.709-48.709s48.71,21.851,48.71,48.709
	S371.185,196.076,344.326,196.076z M344.326,100.075c-26.076,0-47.291,21.215-47.291,47.292s21.215,47.292,47.291,47.292
	c26.077,0,47.292-21.215,47.292-47.292S370.403,100.075,344.326,100.075z"/>
<rect x="260.961" y="145.315" transform="matrix(0.7071 -0.7071 0.7071 0.7071 -3.3534 286.639)" fill="#FF0000" width="166.731" height="4.105"/>
<path fill="#FF0000" d="M252.457,300.625l-15.383-4.049l0.016,3.452c-30.073,0.271-77.451,0.259-92.033-14.188
	c-2.947-2.92-4.442-6.36-4.442-10.227h-1.417c0,4.259,1.635,8.038,4.861,11.234c13.227,13.104,51.953,14.657,81.695,14.657
	c3.97,0,7.773-0.028,11.342-0.06l0.015,3.366L252.457,300.625z"/>
</svg>
