<?xml version="1.0" encoding="utf-8"?>
<!-- Generator: Adobe Illustrator 16.0.3, SVG Export Plug-In . SVG Version: 6.00 Build 0)  -->
<!DOCTYPE svg PUBLIC "-//W3C//DTD SVG 1.1//EN" "http://www.w3.org/Graphics/SVG/1.1/DTD/svg11.dtd">
<svg version="1.1" id="Warstwa_1" xmlns="http://www.w3.org/2000/svg" xmlns:xlink="http://www.w3.org/1999/xlink" x="0px" y="0px"
	 width="700px" height="400px" viewBox="0 0 700 400" enable-background="new 0 0 700 400" xml:space="preserve">
<g>
	<path d="M89.571,41.159h-3.367v4.681h-2.701V32.714h5.798c2.737,0,4.231,1.44,4.231,4.069
		C93.532,39.448,91.984,41.159,89.571,41.159z M88.725,34.964h-2.521v3.943h2.521c1.44,0,2.107-0.63,2.107-1.962
		C90.832,35.595,90.165,34.964,88.725,34.964z"/>
	<path d="M100.01,38.458c-1.476,0-2.214,0.738-2.214,2.215v5.167h-2.521v-9.723h2.521v1.909c0.54-1.314,1.548-2.07,2.701-2.07
		c0.072,0,0.162,0,0.306,0.018v2.557C100.46,38.476,100.28,38.458,100.01,38.458z"/>
	<path d="M110.667,41.645h-6.518c0.072,1.891,0.828,2.431,2.017,2.431c0.918,0,1.71-0.27,1.926-0.972h2.485
		c-0.558,1.909-2.323,2.899-4.501,2.899c-2.754,0-4.447-1.783-4.447-4.897c0-3.259,1.71-5.149,4.501-5.149
		c2.863,0,4.555,2.035,4.555,5.383L110.667,41.645z M106.094,37.881c-1.116,0-1.747,0.738-1.908,2.089h3.871
		C107.931,38.583,107.174,37.881,106.094,37.881z"/>
	<path d="M117.182,45.84h-2.646l-3.403-9.723h2.665l2.106,7.112l1.962-7.112h2.665L117.182,45.84z"/>
	<path d="M122.095,45.84v-9.723h2.521v9.723H122.095z M122.131,34.947v-2.521h2.521v2.521H122.131z"/>
	<path d="M135.327,41.645h-6.518c0.072,1.891,0.828,2.431,2.017,2.431c0.918,0,1.71-0.27,1.926-0.972h2.485
		c-0.558,1.909-2.323,2.899-4.501,2.899c-2.754,0-4.447-1.783-4.447-4.897c0-3.259,1.71-5.149,4.501-5.149
		c2.863,0,4.555,2.035,4.555,5.383L135.327,41.645z M130.754,37.881c-1.116,0-1.747,0.738-1.908,2.089h3.871
		C132.591,38.583,131.834,37.881,130.754,37.881z"/>
	<path d="M146.848,45.84h-2.61l-1.458-6.86l-1.549,6.86h-2.593l-2.737-9.723h2.611l1.548,6.806l1.477-6.806h2.521l1.458,6.806
		l1.476-6.806h2.611L146.848,45.84z"/>
</g>
<g>
	<path d="M312.856,46.056c-3.853,0-6.32-2.863-6.32-6.788c0-3.763,2.449-6.77,6.302-6.77c3.835,0,6.338,2.899,6.338,6.86
		C319.176,43.193,316.674,46.056,312.856,46.056z M312.856,34.803c-2.179,0-3.619,1.818-3.619,4.465c0,2.755,1.44,4.483,3.619,4.483
		c2.161,0,3.619-1.729,3.619-4.412C316.476,36.603,315.071,34.803,312.856,34.803z"/>
	<path d="M327.041,45.84v-1.278c-0.72,0.954-1.603,1.44-2.917,1.44c-2.071,0-3.259-1.225-3.259-3.367v-6.518h2.521v5.996
		c0,1.17,0.541,1.747,1.621,1.747c1.225,0,2.035-0.756,2.035-1.909v-5.834h2.521v9.723H327.041z"/>
	<path d="M334.779,45.912c-1.656,0-2.466-0.63-2.466-2.16V37.99h-1.243v-1.675h1.243v-2.611h2.521v2.611h1.404v1.675h-1.404v5.077
		c0,0.864,0.162,1.063,0.828,1.063c0.18,0,0.324-0.018,0.576-0.054v1.765C335.788,45.858,335.338,45.912,334.779,45.912z"/>
	<path d="M338.019,45.84V32.714h2.521V45.84H338.019z"/>
	<path d="M343.022,45.84v-9.723h2.521v9.723H343.022z M343.058,34.947v-2.521h2.521v2.521H343.058z"/>
	<path d="M354.13,45.84v-5.996c0-1.152-0.54-1.747-1.62-1.747c-1.225,0-2.034,0.756-2.034,1.909v5.833h-2.521v-9.723h2.521v1.405
		c0.72-1.081,1.603-1.566,2.916-1.566c2.071,0,3.26,1.224,3.26,3.367v6.518H354.13z"/>
	<path d="M367.253,41.645h-6.519c0.072,1.891,0.828,2.431,2.017,2.431c0.918,0,1.711-0.27,1.927-0.972h2.484
		c-0.558,1.909-2.322,2.899-4.501,2.899c-2.755,0-4.447-1.783-4.447-4.897c0-3.259,1.71-5.149,4.501-5.149
		c2.863,0,4.556,2.035,4.556,5.383L367.253,41.645z M362.679,37.881c-1.116,0-1.746,0.738-1.908,2.089h3.871
		C364.516,38.583,363.76,37.881,362.679,37.881z"/>
</g>
<g>
	<path d="M370.583,262.008v-16.942h3.35v1.296h-1.854v14.351h1.854v1.296H370.583z"/>
	<path d="M383.222,258.317c-0.738,0-1.387-0.522-1.549-1.242c-0.828,0.882-1.998,1.386-3.205,1.386
		c-1.908,0-3.097-1.008-3.097-2.719c0-1.152,0.559-1.998,1.656-2.448c0.576-0.234,0.9-0.307,3.025-0.576
		c1.188-0.145,1.566-0.414,1.566-1.045v-0.396c0-0.9-0.756-1.404-2.106-1.404c-1.404,0-2.089,0.521-2.215,1.674h-1.513
		c0.09-2.179,1.494-3.061,3.781-3.061c2.322,0,3.547,0.9,3.547,2.574v5.258c0,0.469,0.288,0.738,0.811,0.738
		c0.09,0,0.162,0,0.324-0.036v1.135C383.762,258.281,383.527,258.317,383.222,258.317z M381.619,253.527
		c-0.504,0.234-0.828,0.307-2.413,0.522c-1.603,0.234-2.269,0.666-2.269,1.656c0,1.026,0.685,1.44,1.854,1.44
		c1.459,0,2.827-0.864,2.827-2.214V253.527z"/>
	<path d="M392.383,258.191v-1.387c-0.81,1.17-1.71,1.656-3.007,1.656c-2.538,0-4.104-1.891-4.104-5.077
		c0-3.007,1.603-4.897,4.051-4.897c1.261,0,2.269,0.504,2.898,1.458v-4.879h1.495v13.126H392.383z M389.574,249.891
		c-1.639,0-2.736,1.387-2.736,3.583s1.098,3.583,2.755,3.583c1.584,0,2.628-1.368,2.628-3.547S391.195,249.891,389.574,249.891z"/>
	<path d="M402.571,258.191v-1.387c-0.811,1.17-1.711,1.656-3.007,1.656c-2.539,0-4.105-1.891-4.105-5.077
		c0-3.007,1.603-4.897,4.052-4.897c1.26,0,2.269,0.504,2.898,1.458v-4.879h1.494v13.126H402.571z M399.763,249.891
		c-1.639,0-2.737,1.387-2.737,3.583s1.099,3.583,2.755,3.583c1.585,0,2.629-1.368,2.629-3.547S401.383,249.891,399.763,249.891z"/>
	<path d="M405.593,262.008v-1.296h1.854v-14.351h-1.854v-1.296h3.35v16.942H405.593z"/>
</g>
<g>
	<path d="M473.452,258.461c-2.684,0-4.268-1.818-4.268-4.987s1.603-4.987,4.249-4.987c2.719,0,4.285,1.801,4.285,5.06
		C477.719,256.643,476.099,258.461,473.452,258.461z M473.452,249.873c-1.675,0-2.701,1.332-2.701,3.601
		c0,2.287,1.026,3.602,2.701,3.602c1.656,0,2.7-1.333,2.7-3.548C476.152,251.188,475.145,249.873,473.452,249.873z"/>
	<path d="M481.479,253.294v4.897h-1.495v-9.436h1.369v1.711c0.864-1.404,1.603-1.98,2.574-1.98c0.198,0,0.324,0.018,0.576,0.054
		v1.53C482.182,250.106,481.479,251.169,481.479,253.294z"/>
</g>
<g>
	<path d="M568.348,262.008v-16.942h3.35v1.296h-1.854v14.351h1.854v1.296H568.348z"/>
	<path d="M575.729,258.317c-1.17,0-1.818-0.54-1.818-1.495v-6.842h-1.278v-1.225h1.278v-2.593h1.494v2.593h1.549v1.225h-1.549v6.176
		c0,0.666,0.181,0.847,0.828,0.847c0.288,0,0.522-0.019,0.721-0.072v1.261C576.449,258.281,576.089,258.317,575.729,258.317z"/>
	<path d="M580.318,253.294v4.897h-1.494v-9.436h1.368v1.711c0.864-1.404,1.603-1.98,2.575-1.98c0.197,0,0.324,0.018,0.576,0.054
		v1.53C581.021,250.106,580.318,251.169,580.318,253.294z"/>
	<path d="M584.817,247.334v-1.873h1.873v1.873H584.817z M584.998,258.191v-9.436h1.494v9.436H584.998z"/>
	<path d="M600.103,258.191v-6.5c0-1.188-0.63-1.891-1.729-1.891c-1.224,0-2.232,1.099-2.232,2.467v5.924h-1.494v-6.5
		c0-1.207-0.63-1.891-1.747-1.891c-1.224,0-2.214,1.099-2.214,2.467v5.924h-1.495v-9.436h1.369v1.333
		c0.81-1.135,1.638-1.603,2.898-1.603c1.225,0,1.98,0.432,2.539,1.44c0.882-1.063,1.638-1.44,2.898-1.44
		c1.765,0,2.701,0.937,2.701,2.629v7.076H600.103z"/>
	<path d="M603.501,262.008v-1.296h1.854v-14.351h-1.854v-1.296h3.35v16.942H603.501z"/>
</g>
<path fill="none" stroke="#222221" stroke-width="1.4173" stroke-miterlimit="10" d="M360.926,290.006V267.01h-55.109v55.111h22.996
	c0.001,17.735,14.38,32.113,32.113,32.113c17.736,0,32.115-14.379,32.115-32.115C393.041,304.384,378.662,290.006,360.926,290.006z"
	/>
<g>
	<circle fill="#FFFFFF" stroke="#222221" stroke-width="1.4173" stroke-miterlimit="10" cx="558.693" cy="322.119" r="32.114"/>
	<path fill="none" stroke="#222221" stroke-width="1.4173" stroke-miterlimit="10" d="M526.579,322.119
		c0-17.735,14.379-32.113,32.114-32.113V267.01h-55.11v55.111h22.996C526.579,322.12,526.579,322.12,526.579,322.119z"/>
</g>
<g>
	
		<rect x="305.816" y="103.756" fill="none" stroke="#222221" stroke-width="1.4173" stroke-miterlimit="10" width="55.109" height="55.109"/>
	<circle fill="none" stroke="#222221" stroke-width="1.4173" stroke-miterlimit="10" cx="360.926" cy="158.865" r="32.114"/>
</g>
<rect x="82.135" y="163.283" width="55.11" height="55.109"/>
<circle cx="137.245" cy="218.393" r="32.114"/>
<rect x="266.063" y="145.315" transform="matrix(0.7071 -0.7071 0.7071 0.7071 -1.8589 290.2471)" fill="#FF0000" width="166.731" height="4.105"/>
<path fill="#FF0000" d="M252.457,300.625l-15.383-4.049l0.016,3.452c-30.073,0.271-77.451,0.259-92.033-14.188
	c-2.947-2.92-4.442-6.36-4.442-10.227h-1.417c0,4.259,1.635,8.038,4.861,11.234c13.227,13.104,51.953,14.657,81.695,14.657
	c3.97,0,7.773-0.028,11.342-0.06l0.015,3.366L252.457,300.625z"/>
</svg>
