<?xml version="1.0" encoding="UTF-8" standalone="no"?>
<!-- Created with Inkscape (http://www.inkscape.org/) -->

<svg
   xmlns:dc="http://purl.org/dc/elements/1.1/"
   xmlns:cc="http://creativecommons.org/ns#"
   xmlns:rdf="http://www.w3.org/1999/02/22-rdf-syntax-ns#"
   xmlns:svg="http://www.w3.org/2000/svg"
   xmlns="http://www.w3.org/2000/svg"
   xmlns:sodipodi="http://sodipodi.sourceforge.net/DTD/sodipodi-0.dtd"
   xmlns:inkscape="http://www.inkscape.org/namespaces/inkscape"
   width="177.16251"
   height="1062.9921"
   id="svg2"
   version="1.1"
   inkscape:version="0.48.4 r9939"
   sodipodi:docname="file.svg">
  <defs
     id="defs4" />
  <sodipodi:namedview
     id="base"
     pagecolor="#ffffff"
     bordercolor="#666666"
     borderopacity="1.0"
     inkscape:pageopacity="0.0"
     inkscape:pageshadow="2"
     inkscape:zoom="26.838631"
     inkscape:cx="50.182666"
     inkscape:cy="216.87237"
     inkscape:document-units="px"
     inkscape:current-layer="layer1"
     showgrid="false"
     units="mm"
     inkscape:window-width="1920"
     inkscape:window-height="1004"
     inkscape:window-x="0"
     inkscape:window-y="24"
     inkscape:window-maximized="1" />
  <metadata
     id="metadata7">
    <rdf:RDF>
      <cc:Work
         rdf:about="">
        <dc:format>image/svg+xml</dc:format>
        <dc:type
           rdf:resource="http://purl.org/dc/dcmitype/StillImage" />
        <dc:title></dc:title>
      </cc:Work>
    </rdf:RDF>
  </metadata>
  <g
     inkscape:label="Layer 1"
     inkscape:groupmode="layer"
     id="layer1"
     transform="translate(0,10.62989)">
    <g
       transform="matrix(0,1,-1,0,0,0)"
       style="font-size:32.61649323000000322px;font-style:normal;font-weight:normal;line-height:125%;letter-spacing:0px;word-spacing:0px;fill:#000000;fill-opacity:1;stroke:none;font-family:Sans"
       id="text2985">
      <path
         d="m 373.86709,-78.111315 0,-21.404574 -2.8189,0 0,-1.688161 5.74929,0 0,10.495251 c 0.57333,-1.061719 1.30062,-1.842093 2.18187,-2.341125 0.89184,-0.509615 1.99074,-0.764431 3.29668,-0.764449 2.08099,1.8e-5 3.77976,0.822861 5.09633,2.468534 1.31653,1.645702 1.97481,3.795713 1.97483,6.450039 -2e-5,2.654342 -0.6583,4.809662 -1.97483,6.465964 -1.31657,1.64569 -3.01534,2.468533 -5.09633,2.468534 -1.30594,-10e-7 -2.40484,-0.249508 -3.29668,-0.748523 -0.88125,-0.509632 -1.60854,-1.295315 -2.18187,-2.357051 l 0,2.643719 -5.74929,0 0,-1.688158 2.8189,0 m 2.93039,-5.940406 c -1e-5,2.038536 0.38753,3.593976 1.1626,4.666324 0.78568,1.061737 1.92173,1.592604 3.40817,1.592602 1.49703,2e-6 2.62778,-0.599878 3.39224,-1.79964 0.77505,-1.199756 1.16259,-2.967543 1.1626,-5.303365 -10e-6,-2.346424 -0.38755,-4.11421 -1.1626,-5.303366 -0.76446,-1.189128 -1.89521,-1.783699 -3.39224,-1.783714 -1.48644,1.5e-5 -2.62249,0.536191 -3.40817,1.608528 -0.77507,1.072365 -1.16261,2.622496 -1.1626,4.650398 l 0,1.672233"
         style="font-variant:normal;font-stretch:normal;text-align:start;line-height:125%;letter-spacing:0.11000000000000000px;writing-mode:lr-tb;text-anchor:start;font-family:Serif;-inkscape-font-specification:Serif;stroke:none"
         id="path3167" />
      <path
         d="m 400.92392,-77.537978 c 1.57136,10e-7 2.75519,-0.621113 3.55151,-1.863345 0.8069,-1.242225 1.21036,-3.073716 1.21037,-5.494477 -10e-6,-2.420745 -0.40347,-4.246927 -1.21037,-5.478552 -0.79632,-1.242215 -1.98015,-1.863329 -3.55151,-1.863345 -1.57137,1.6e-5 -2.76051,0.62113 -3.56743,1.863345 -0.7963,1.231625 -1.19445,3.057807 -1.19445,5.478552 0,2.420761 0.40346,4.252252 1.21038,5.494477 0.80691,1.242232 1.99074,1.863346 3.5515,1.863345 m 0,1.576676 c -2.46323,-10e-7 -4.44336,-0.812227 -5.9404,-2.436681 -1.49705,-1.635068 -2.24557,-3.801005 -2.24557,-6.497817 0,-2.696796 0.74321,-4.857424 2.22964,-6.481891 1.49704,-1.624438 3.48248,-2.436664 5.95633,-2.436682 2.47383,1.8e-5 4.45397,0.812244 5.94041,2.436682 1.49703,1.624467 2.24555,3.785095 2.24557,6.481891 -2e-5,2.696812 -0.74854,4.862749 -2.24557,6.497817 -1.48644,1.624454 -3.46658,2.43668 -5.94041,2.436681"
         style="font-variant:normal;font-stretch:normal;text-align:start;line-height:125%;letter-spacing:0.11000000000000000px;writing-mode:lr-tb;text-anchor:start;font-family:Serif;-inkscape-font-specification:Serif;stroke:none"
         id="path3169" />
      <path
         d="m 420.65478,-77.537978 c 1.57136,10e-7 2.75519,-0.621113 3.55151,-1.863345 0.8069,-1.242225 1.21036,-3.073716 1.21037,-5.494477 -10e-6,-2.420745 -0.40347,-4.246927 -1.21037,-5.478552 -0.79632,-1.242215 -1.98015,-1.863329 -3.55151,-1.863345 -1.57137,1.6e-5 -2.76052,0.62113 -3.56743,1.863345 -0.7963,1.231625 -1.19445,3.057807 -1.19445,5.478552 0,2.420761 0.40346,4.252252 1.21038,5.494477 0.80691,1.242232 1.99074,1.863346 3.5515,1.863345 m 0,1.576676 c -2.46323,-10e-7 -4.44336,-0.812227 -5.9404,-2.436681 -1.49705,-1.635068 -2.24557,-3.801005 -2.24557,-6.497817 0,-2.696796 0.74321,-4.857424 2.22964,-6.481891 1.49704,-1.624438 3.48248,-2.436664 5.95633,-2.436682 2.47383,1.8e-5 4.45397,0.812244 5.94041,2.436682 1.49703,1.624467 2.24555,3.785095 2.24557,6.481891 -2e-5,2.696812 -0.74854,4.862749 -2.24557,6.497817 -1.48644,1.624454 -3.46658,2.43668 -5.94041,2.436681"
         style="font-variant:normal;font-stretch:normal;text-align:start;line-height:125%;letter-spacing:0.11000000000000000px;writing-mode:lr-tb;text-anchor:start;font-family:Serif;-inkscape-font-specification:Serif;stroke:none"
         id="path3171" />
      <path
         d="m 439.90786,-76.423157 -8.21783,0 0,-1.688158 2.64372,0 0,-21.404574 -2.8189,0 0,-1.688161 5.74929,0 0,16.133063 7.13486,-6.577447 -2.43668,0 0,-1.704084 7.66041,0 0,1.704084 -2.89853,0 -5.03263,4.650399 6.43412,8.88672 2.43668,0 0,1.688158 -8.34524,0 0,-1.688158 2.42076,0 -5.06448,-6.959672 -2.30927,2.150013 0,4.809659 2.64372,0 0,1.688158"
         style="font-variant:normal;font-stretch:normal;text-align:start;line-height:125%;letter-spacing:0.11000000000000000px;writing-mode:lr-tb;text-anchor:start;font-family:Serif;-inkscape-font-specification:Serif;stroke:none"
         id="path3173" />
      <path
         d="m 462.75874,-77.362792 0,-3.949654 1.68816,0 c 0.0425,1.263469 0.4353,2.208412 1.17852,2.834832 0.75383,0.626425 1.86334,0.939637 3.32854,0.939636 1.31654,10e-7 2.31988,-0.244198 3.01002,-0.732597 0.69012,-0.499013 1.03518,-1.220992 1.03519,-2.165939 -10e-6,-0.74321 -0.25483,-1.343089 -0.76445,-1.799641 -0.49902,-0.456539 -1.56076,-0.944937 -3.1852,-1.465194 l -2.11816,-0.716671 c -1.45458,-0.467155 -2.51101,-1.051108 -3.16928,-1.751862 -0.64766,-0.700735 -0.97149,-1.592591 -0.97149,-2.675572 0,-1.550119 0.56803,-2.765804 1.70409,-3.647059 1.13605,-0.881223 2.70741,-1.321842 4.7141,-1.32186 0.89185,1.8e-5 1.83148,0.116808 2.8189,0.350373 0.9874,0.233598 2.00667,0.573353 3.0578,1.019265 l 0,3.694837 -1.68816,0 c -0.0425,-1.093573 -0.4247,-1.948269 -1.14667,-2.564089 -0.72199,-0.615791 -1.7041,-0.923694 -2.94632,-0.92371 -1.23162,1.6e-5 -2.16594,0.217672 -2.80298,0.652967 -0.62642,0.435326 -0.93964,1.088292 -0.93963,1.958901 -10e-6,0.711375 0.23888,1.284711 0.71667,1.72001 0.47777,0.424705 1.43333,0.860016 2.86668,1.305934 l 2.3252,0.716671 c 1.60321,0.499024 2.75519,1.125447 3.45595,1.879271 0.71135,0.743221 1.06703,1.70409 1.06704,2.88261 -1e-5,1.603222 -0.61582,2.866686 -1.84742,3.790393 -1.221,0.913092 -2.90916,1.369637 -5.06447,1.369638 -1.09359,-10e-7 -2.16064,-0.116791 -3.20113,-0.350373 -1.04051,-0.233581 -2.081,-0.583953 -3.1215,-1.051117"
         style="font-variant:normal;font-stretch:normal;text-align:start;line-height:125%;letter-spacing:0.11000000000000000px;writing-mode:lr-tb;text-anchor:start;font-family:Serif;-inkscape-font-specification:Serif;stroke:none"
         id="path3175" />
      <path
         d="m 484.48035,-78.111315 2.77113,0 0,1.688158 -8.52042,0 0,-1.688158 2.8189,0 0,-21.404574 -2.8189,0 0,-1.688161 5.74929,0 0,23.092735"
         style="font-variant:normal;font-stretch:normal;text-align:start;line-height:125%;letter-spacing:0.11000000000000000px;writing-mode:lr-tb;text-anchor:start;font-family:Serif;-inkscape-font-specification:Serif;stroke:none"
         id="path3177" />
      <path
         d="m 491.51817,-98.608105 c 0,-0.488376 0.17518,-0.913069 0.52556,-1.274082 0.36099,-0.360963 0.79099,-0.541463 1.29001,-0.541483 0.48839,2e-5 0.90777,0.18052 1.25815,0.541483 0.36099,0.361013 0.54148,0.785706 0.54149,1.274082 -10e-6,0.499037 -0.1752,0.92373 -0.52556,1.274081 -0.35038,0.350393 -0.77507,0.525579 -1.27408,0.525559 -0.49902,2e-5 -0.92902,-0.175166 -1.29001,-0.525559 -0.35038,-0.350351 -0.52556,-0.775044 -0.52556,-1.274081 m 3.74262,20.49679 2.77112,0 0,1.688158 -8.50449,0 0,-1.688158 2.80298,0 0,-13.537119 -2.80298,0 0,-1.704084 5.73337,0 0,15.241203"
         style="font-variant:normal;font-stretch:normal;text-align:start;line-height:125%;letter-spacing:0.11000000000000000px;writing-mode:lr-tb;text-anchor:start;font-family:Serif;-inkscape-font-specification:Serif;stroke:none"
         id="path3179" />
      <path
         d="m 515.67646,-81.503558 c -0.41409,1.804953 -1.2104,3.179898 -2.38891,4.12484 -1.17853,0.944944 -2.70212,1.417415 -4.57076,1.417416 -2.46324,-10e-7 -4.44337,-0.812227 -5.94041,-2.436681 -1.49705,-1.635068 -2.24557,-3.801005 -2.24557,-6.497817 0,-2.707413 0.74852,-4.868041 2.24557,-6.481891 1.49704,-1.624438 3.47717,-2.436664 5.94041,-2.436682 1.07234,1.8e-5 2.13938,0.127426 3.20113,0.382225 1.06172,0.244215 2.12876,0.621131 3.20113,1.130747 l 0,4.331878 -1.70409,0 c -0.22298,-1.486415 -0.71137,-2.569384 -1.46519,-3.248908 -0.74323,-0.679495 -1.81027,-1.01925 -3.20113,-1.019266 -1.58199,1.6e-5 -2.77645,0.615822 -3.58336,1.847419 -0.80692,1.221008 -1.21038,3.052498 -1.21037,5.494478 -10e-6,2.441996 0.39814,4.278795 1.19445,5.510403 0.80691,1.231614 2.00667,1.84742 3.59928,1.847419 1.26345,10e-7 2.2721,-0.329137 3.02594,-0.987414 0.75382,-0.658272 1.26876,-1.650994 1.54483,-2.978166 l 2.35705,0"
         style="font-variant:normal;font-stretch:normal;text-align:start;line-height:125%;letter-spacing:0.11000000000000000px;writing-mode:lr-tb;text-anchor:start;font-family:Serif;-inkscape-font-specification:Serif;stroke:none"
         id="path3181" />
      <path
         d="m 534.97732,-84.57728 -12.62933,0 0,0.127408 c -10e-6,2.282736 0.42999,4.008053 1.29001,5.175957 0.85999,1.157293 2.12877,1.735938 3.80631,1.735937 1.28469,10e-7 2.33581,-0.334445 3.15336,-1.00334 0.82814,-0.679507 1.40678,-1.682846 1.73593,-3.010018 l 2.35705,0 c -0.46718,1.858039 -1.33249,3.254219 -2.59594,4.188544 -1.25286,0.934327 -2.90385,1.401489 -4.95299,1.40149 -2.47385,-10e-7 -4.4646,-0.812227 -5.97226,-2.436681 -1.49705,-1.635068 -2.24557,-3.801005 -2.24557,-6.497817 0,-2.675561 0.73791,-4.830881 2.21372,-6.465965 1.47581,-1.635055 3.41347,-2.45259 5.813,-2.452608 2.55877,1.8e-5 4.52297,0.791009 5.89263,2.372977 1.36962,1.571381 2.08098,3.859418 2.13408,6.864116 m -3.45594,-1.688158 c -0.0637,-1.974815 -0.48311,-3.461243 -1.25816,-4.459287 -0.76446,-1.008632 -1.86866,-1.512956 -3.31261,-1.512972 -1.34841,1.6e-5 -2.41015,0.50434 -3.18521,1.512972 -0.77507,1.008662 -1.24754,2.495089 -1.41741,4.459287 l 9.17339,0"
         style="font-variant:normal;font-stretch:normal;text-align:start;line-height:125%;letter-spacing:0.11000000000000000px;writing-mode:lr-tb;text-anchor:start;font-family:Serif;-inkscape-font-specification:Serif;stroke:none"
         id="path3183" />
      <path
         d="m 550.72519,-91.648434 -2.58002,0 0,-1.704084 2.58002,0 0,-5.255587 2.94631,0 0,5.255587 5.5104,0 0,1.704084 -5.5104,0 0,10.750065 c -1e-5,1.433345 0.13802,2.351745 0.41408,2.755202 0.27604,0.40346 0.78567,0.60519 1.5289,0.605189 0.76444,10e-7 1.32185,-0.222963 1.67223,-0.668893 0.35036,-0.456544 0.53616,-1.18914 0.55741,-2.197791 l 2.21372,0 c -0.085,1.539518 -0.50434,2.664955 -1.25816,3.376316 -0.75384,0.711363 -1.90052,1.067043 -3.44002,1.067044 -1.68817,-10e-7 -2.88262,-0.371607 -3.58336,-1.114822 -0.70074,-0.75383 -1.05112,-2.02791 -1.05111,-3.822245 l 0,-10.750065"
         style="font-variant:normal;font-stretch:normal;text-align:start;line-height:125%;letter-spacing:0.11000000000000000px;writing-mode:lr-tb;text-anchor:start;font-family:Serif;-inkscape-font-specification:Serif;stroke:none"
         id="path3185" />
      <path
         d="m 578.11647,-84.57728 -12.62934,0 0,0.127408 c 0,2.282736 0.43,4.008053 1.29001,5.175957 0.86,1.157293 2.12877,1.735938 3.80632,1.735937 1.28469,10e-7 2.3358,-0.334445 3.15335,-1.00334 0.82814,-0.679507 1.40679,-1.682846 1.73594,-3.010018 l 2.35705,0 c -0.46718,1.858039 -1.33249,3.254219 -2.59594,4.188544 -1.25286,0.934327 -2.90386,1.401489 -4.95299,1.40149 -2.47385,-10e-7 -4.46461,-0.812227 -5.97226,-2.436681 -1.49705,-1.635068 -2.24557,-3.801005 -2.24557,-6.497817 0,-2.675561 0.7379,-4.830881 2.21371,-6.465965 1.47581,-1.635055 3.41347,-2.45259 5.813,-2.452608 2.55877,1.8e-5 4.52298,0.791009 5.89263,2.372977 1.36962,1.571381 2.08098,3.859418 2.13409,6.864116 m -3.45595,-1.688158 c -0.0637,-1.974815 -0.4831,-3.461243 -1.25815,-4.459287 -0.76447,-1.008632 -1.86867,-1.512956 -3.31262,-1.512972 -1.34841,1.6e-5 -2.41014,0.50434 -3.1852,1.512972 -0.77507,1.008662 -1.24755,2.495089 -1.41742,4.459287 l 9.17339,0"
         style="font-variant:normal;font-stretch:normal;text-align:start;line-height:125%;letter-spacing:0.11000000000000000px;writing-mode:lr-tb;text-anchor:start;font-family:Serif;-inkscape-font-specification:Serif;stroke:none"
         id="path3187" />
      <path
         d="m 581.68241,-77.362792 0,-3.949654 1.68816,0 c 0.0425,1.263469 0.43531,2.208412 1.17853,2.834832 0.75382,0.626425 1.86334,0.939637 3.32854,0.939636 1.31654,10e-7 2.31988,-0.244198 3.01001,-0.732597 0.69012,-0.499013 1.03518,-1.220992 1.0352,-2.165939 -2e-5,-0.74321 -0.25483,-1.343089 -0.76445,-1.799641 -0.49903,-0.456539 -1.56076,-0.944937 -3.18521,-1.465194 l -2.11816,-0.716671 c -1.45458,-0.467155 -2.511,-1.051108 -3.16928,-1.751862 -0.64766,-0.700735 -0.97149,-1.592591 -0.97148,-2.675572 -1e-5,-1.550119 0.56802,-2.765804 1.70408,-3.647059 1.13605,-0.881223 2.70742,-1.321842 4.7141,-1.32186 0.89185,1.8e-5 1.83149,0.116808 2.81891,0.350373 0.9874,0.233598 2.00666,0.573353 3.0578,1.019265 l 0,3.694837 -1.68816,0 c -0.0425,-1.093573 -0.42471,-1.948269 -1.14668,-2.564089 -0.72199,-0.615791 -1.70409,-0.923694 -2.94631,-0.92371 -1.23162,1.6e-5 -2.16595,0.217672 -2.80298,0.652967 -0.62643,0.435326 -0.93964,1.088292 -0.93964,1.958901 0,0.711375 0.23889,1.284711 0.71668,1.72001 0.47777,0.424705 1.43333,0.860016 2.86668,1.305934 l 2.3252,0.716671 c 1.60321,0.499024 2.75519,1.125447 3.45595,1.879271 0.71134,0.743221 1.06702,1.70409 1.06704,2.88261 -2e-5,1.603222 -0.61582,2.866686 -1.84742,3.790393 -1.22101,0.913092 -2.90916,1.369637 -5.06448,1.369638 -1.09359,-10e-7 -2.16063,-0.116791 -3.20113,-0.350373 -1.0405,-0.233581 -2.081,-0.583953 -3.1215,-1.051117"
         style="font-variant:normal;font-stretch:normal;text-align:start;line-height:125%;letter-spacing:0.11000000000000000px;writing-mode:lr-tb;text-anchor:start;font-family:Serif;-inkscape-font-specification:Serif;stroke:none"
         id="path3189" />
      <path
         d="m 600.23475,-91.648434 -2.58001,0 0,-1.704084 2.58001,0 0,-5.255587 2.94632,0 0,5.255587 5.5104,0 0,1.704084 -5.5104,0 0,10.750065 c -10e-6,1.433345 0.13802,2.351745 0.41407,2.755202 0.27605,0.40346 0.78568,0.60519 1.5289,0.605189 0.76444,10e-7 1.32185,-0.222963 1.67224,-0.668893 0.35036,-0.456544 0.53616,-1.18914 0.55741,-2.197791 l 2.21371,0 c -0.085,1.539518 -0.50433,2.664955 -1.25815,3.376316 -0.75385,0.711363 -1.90052,1.067043 -3.44002,1.067044 -1.68817,-10e-7 -2.88262,-0.371607 -3.58336,-1.114822 -0.70075,-0.75383 -1.05112,-2.02791 -1.05112,-3.822245 l 0,-10.750065"
         style="font-variant:normal;font-stretch:normal;text-align:start;line-height:125%;letter-spacing:0.11000000000000000px;writing-mode:lr-tb;text-anchor:start;font-family:Serif;-inkscape-font-specification:Serif;stroke:none"
         id="path3191" />
      <path
         d="m 637.49868,-96.904021 -1.49705,-0.01593 c -0.0319,-0.913071 -0.37162,-1.59258 -1.01926,-2.038531 -0.64767,-0.456523 -1.62447,-0.684796 -2.93039,-0.684819 -1.62446,2.3e-5 -2.81361,0.376939 -3.56743,1.130748 -0.75384,0.753853 -1.13075,1.942994 -1.13075,3.567429 l 0,1.592602 11.32341,0 0,15.241203 2.77112,0 0,1.688158 -8.52042,0 0,-1.688158 2.81891,0 0,-13.537119 -8.39302,0 0,13.537119 2.77113,0 0,1.688158 -8.50449,0 0,-1.688158 2.80298,0 0,-13.537119 -2.80298,0 0,-1.704084 2.80298,0 0,-1.528898 c -10e-6,-2.091597 0.62111,-3.668272 1.86334,-4.730029 1.24222,-1.061715 3.07902,-1.592575 5.5104,-1.592605 0.9237,3e-5 1.86864,0.069 2.83484,0.20704 0.96616,0.13805 1.92172,0.3504 2.86668,0.63704 l 0,3.455949"
         style="font-variant:normal;font-stretch:normal;text-align:start;line-height:125%;letter-spacing:0.11000000000000000px;writing-mode:lr-tb;text-anchor:start;font-family:Serif;-inkscape-font-specification:Serif;stroke:none"
         id="path3193" />
      <path
         d="m 649.13763,-78.111315 2.77113,0 0,1.688158 -8.52042,0 0,-1.688158 2.8189,0 0,-21.404574 -2.8189,0 0,-1.688161 5.74929,0 0,23.092735"
         style="font-variant:normal;font-stretch:normal;text-align:start;line-height:125%;letter-spacing:0.11000000000000000px;writing-mode:lr-tb;text-anchor:start;font-family:Serif;-inkscape-font-specification:Serif;stroke:none"
         id="path3195" />
      <path
         d="m 670.68405,-84.57728 -12.62934,0 0,0.127408 c 0,2.282736 0.43,4.008053 1.29001,5.175957 0.86,1.157293 2.12877,1.735938 3.80632,1.735937 1.28469,10e-7 2.3358,-0.334445 3.15335,-1.00334 0.82814,-0.679507 1.40679,-1.682846 1.73594,-3.010018 l 2.35705,0 c -0.46718,1.858039 -1.33249,3.254219 -2.59594,4.188544 -1.25286,0.934327 -2.90386,1.401489 -4.95299,1.40149 -2.47385,-10e-7 -4.4646,-0.812227 -5.97226,-2.436681 -1.49705,-1.635068 -2.24557,-3.801005 -2.24557,-6.497817 0,-2.675561 0.7379,-4.830881 2.21372,-6.465965 1.4758,-1.635055 3.41347,-2.45259 5.81299,-2.452608 2.55877,1.8e-5 4.52298,0.791009 5.89263,2.372977 1.36962,1.571381 2.08098,3.859418 2.13409,6.864116 m -3.45595,-1.688158 c -0.0637,-1.974815 -0.4831,-3.461243 -1.25815,-4.459287 -0.76446,-1.008632 -1.86867,-1.512956 -3.31262,-1.512972 -1.34841,1.6e-5 -2.41014,0.50434 -3.1852,1.512972 -0.77507,1.008662 -1.24754,2.495089 -1.41742,4.459287 l 9.17339,0"
         style="font-variant:normal;font-stretch:normal;text-align:start;line-height:125%;letter-spacing:0.11000000000000000px;writing-mode:lr-tb;text-anchor:start;font-family:Serif;-inkscape-font-specification:Serif;stroke:none"
         id="path3197" />
    </g>
    <path
       style="fill:#ff0000;fill-opacity:1;stroke:none"
       d="M 13.473881,1048.1195 0,1052.3622 l 4.24258,-13.474 z"
       id="path3004"
       inkscape:connector-curvature="0"
       sodipodi:nodetypes="cccc" />
    <path
       sodipodi:nodetypes="cccc"
       inkscape:connector-curvature="0"
       id="path3028"
       d="m 163.69146,1048.1195 13.47388,4.2427 -4.24258,-13.474 z"
       style="fill:#ff0000;fill-opacity:1;stroke:none" />
    <path
       sodipodi:nodetypes="cccc"
       inkscape:connector-curvature="0"
       id="path3042"
       d="M 13.473881,-6.38719 0,-10.62989 4.24258,2.84411 z"
       style="fill:#ff0000;fill-opacity:1;stroke:none" />
    <path
       style="fill:#ff0000;fill-opacity:1;stroke:none"
       d="m 163.68863,-6.38719 13.47388,-4.2427 -4.24258,13.474 z"
       id="path3044"
       inkscape:connector-curvature="0"
       sodipodi:nodetypes="cccc" />
    <g
       id="g3086"
       transform="translate(0,0.28401657)"
       style="stroke:none">
      <path
         id="path3054"
         d="m 106.06602,45.768452 c 0,33.194564 -26.909514,60.104078 -60.104079,60.104078 -33.194565,0 -60.104077,-26.909514 -60.104077,-60.104078 0,-33.194565 26.909512,-60.104077 60.104077,-60.104077 33.194565,0 60.104079,26.909512 60.104079,60.104077 z"
         style="fill:#ff0000;fill-opacity:1;stroke:none"
         transform="translate(42.620731,3.5122206)"
         inkscape:connector-curvature="0" />
      <path
         id="path3056"
         d="m 106.06602,45.768452 c 0,33.194564 -26.909514,60.104078 -60.104079,60.104078 -33.194565,0 -60.104077,-26.909514 -60.104077,-60.104078 0,-33.194565 26.909512,-60.104077 60.104077,-60.104077 33.194565,0 60.104079,26.909512 60.104079,60.104077 z"
         style="fill:#ff0000;fill-opacity:1;stroke:none"
         transform="matrix(0.71428571,0,0,0.71428571,55.752714,123.62448)"
         inkscape:connector-curvature="0" />
      <path
         id="path3058"
         d="m 106.06602,45.768452 c 0,33.194564 -26.909514,60.104078 -60.104079,60.104078 -33.194565,0 -60.104077,-26.909514 -60.104077,-60.104078 0,-33.194565 26.909512,-60.104077 60.104077,-60.104077 33.194565,0 60.104079,26.909512 60.104079,60.104077 z"
         style="fill:#ff0000;fill-opacity:1;stroke:none"
         transform="matrix(0.47899159,0,0,0.47899159,66.567288,210.11436)"
         inkscape:connector-curvature="0" />
      <path
         id="path3060"
         d="m 106.06602,45.768452 c 0,33.194564 -26.909514,60.104078 -60.104079,60.104078 -33.194565,0 -60.104077,-26.909514 -60.104077,-60.104078 0,-33.194565 26.909512,-60.104077 60.104077,-60.104077 33.194565,0 60.104079,26.909512 60.104079,60.104077 z"
         style="fill:#ff0000;fill-opacity:1;stroke:none"
         transform="matrix(0.24369747,0,0,0.24369747,77.381862,268.31997)"
         inkscape:connector-curvature="0" />
    </g>
    <g
       id="g3092"
       transform="matrix(1,0,0,-1,0,1041.5387)"
       style="stroke:none">
      <path
         transform="translate(42.620731,3.5122206)"
         style="fill:#ff0000;fill-opacity:1;stroke:none"
         d="m 106.06602,45.768452 c 0,33.194564 -26.909514,60.104078 -60.104079,60.104078 -33.194565,0 -60.104077,-26.909514 -60.104077,-60.104078 0,-33.194565 26.909512,-60.104077 60.104077,-60.104077 33.194565,0 60.104079,26.909512 60.104079,60.104077 z"
         id="path3094"
         inkscape:connector-curvature="0" />
      <path
         transform="matrix(0.71428571,0,0,0.71428571,55.752714,123.62448)"
         style="fill:#ff0000;fill-opacity:1;stroke:none"
         d="m 106.06602,45.768452 c 0,33.194564 -26.909514,60.104078 -60.104079,60.104078 -33.194565,0 -60.104077,-26.909514 -60.104077,-60.104078 0,-33.194565 26.909512,-60.104077 60.104077,-60.104077 33.194565,0 60.104079,26.909512 60.104079,60.104077 z"
         id="path3096"
         inkscape:connector-curvature="0" />
      <path
         transform="matrix(0.47899159,0,0,0.47899159,66.567288,210.11436)"
         style="fill:#ff0000;fill-opacity:1;stroke:none"
         d="m 106.06602,45.768452 c 0,33.194564 -26.909514,60.104078 -60.104079,60.104078 -33.194565,0 -60.104077,-26.909514 -60.104077,-60.104078 0,-33.194565 26.909512,-60.104077 60.104077,-60.104077 33.194565,0 60.104079,26.909512 60.104079,60.104077 z"
         id="path3098"
         inkscape:connector-curvature="0" />
      <path
         transform="matrix(0.24369747,0,0,0.24369747,77.381862,268.31997)"
         style="fill:#ff0000;fill-opacity:1;stroke:none"
         d="m 106.06602,45.768452 c 0,33.194564 -26.909514,60.104078 -60.104079,60.104078 -33.194565,0 -60.104077,-26.909514 -60.104077,-60.104078 0,-33.194565 26.909512,-60.104077 60.104077,-60.104077 33.194565,0 60.104079,26.909512 60.104079,60.104077 z"
         id="path3100"
         inkscape:connector-curvature="0" />
    </g>
    <g
       style="font-size:18px;font-style:normal;font-weight:normal;line-height:125%;letter-spacing:0px;word-spacing:0px;fill:#000000;fill-opacity:1;stroke:none;font-family:Sans"
       id="text3121">
      <path
         d="m 58.730621,318.26523 6.969727,0 0,1.49414 -5.34375,0 0,3.2168 c 0.257809,-0.0879 0.515621,-0.15234 0.773437,-0.19336 0.257808,-0.0469 0.515621,-0.0703 0.773438,-0.0703 1.464837,10e-6 2.624992,0.40138 3.480469,1.20411 0.855459,0.80274 1.283193,1.88965 1.283203,3.26074 -1e-5,1.41211 -0.439463,2.51074 -1.31836,3.2959 -0.878914,0.77929 -2.11817,1.16894 -3.717773,1.16894 -0.550786,0 -1.113285,-0.0469 -1.6875,-0.14062 -0.568362,-0.0937 -1.157229,-0.23438 -1.766602,-0.42188 l 0,-1.78418 c 0.527342,0.28711 1.072264,0.50098 1.634766,0.6416 0.562496,0.14063 1.157222,0.21094 1.78418,0.21094 1.013666,0 1.816399,-0.2666 2.408203,-0.7998 0.591789,-0.5332 0.887687,-1.25684 0.887695,-2.1709 -8e-6,-0.91406 -0.295906,-1.63769 -0.887695,-2.1709 -0.591804,-0.5332 -1.394537,-0.7998 -2.408203,-0.79981 -0.474614,10e-6 -0.949223,0.0528 -1.423828,0.15821 -0.468753,0.10547 -0.949222,0.26954 -1.441407,0.49219 l 0,-6.5918"
         style="stroke:none"
         id="path3974" />
      <path
         d="m 73.970856,319.43417 c -0.914068,2e-5 -1.602543,0.45119 -2.06543,1.35352 -0.457034,0.89649 -0.68555,2.24708 -0.685547,4.05176 -3e-6,1.79883 0.228513,3.14941 0.685547,4.05175 0.462887,0.89649 1.151362,1.34473 2.06543,1.34473 0.919915,0 1.608391,-0.44824 2.065429,-1.34473 0.462883,-0.90234 0.694328,-2.25292 0.694336,-4.05175 -8e-6,-1.80468 -0.231453,-3.15527 -0.694336,-4.05176 -0.457038,-0.90233 -1.145514,-1.3535 -2.065429,-1.35352 m 0,-1.40625 c 1.470696,2e-5 2.592765,0.58302 3.366211,1.74903 0.779287,1.16016 1.168935,2.84766 1.168945,5.0625 -1e-5,2.20899 -0.389658,3.89648 -1.168945,5.0625 -0.773446,1.16015 -1.895515,1.74023 -3.366211,1.74023 -1.470708,0 -2.595707,-0.58008 -3.375,-1.74023 -0.773439,-1.16602 -1.160158,-2.85351 -1.160157,-5.0625 -10e-7,-2.21484 0.386718,-3.90234 1.160157,-5.0625 0.779293,-1.16601 1.904292,-1.74901 3.375,-1.74903"
         style="stroke:none"
         id="path3976" />
      <path
         d="m 94.800934,323.4332 c 0.404287,-0.72656 0.887685,-1.26269 1.450195,-1.6084 0.562489,-0.34569 1.224597,-0.51855 1.986328,-0.51856 1.025377,10e-6 1.816393,0.36037 2.373043,1.08106 0.55663,0.71485 0.83495,1.73438 0.83497,3.05859 l 0,5.94141 -1.625981,0 0,-5.88867 c -1.5e-5,-0.94336 -0.167007,-1.64355 -0.500977,-2.10059 -0.333998,-0.45702 -0.843763,-0.68554 -1.529297,-0.68555 -0.837902,10e-6 -1.500011,0.27833 -1.986328,0.83496 -0.486338,0.55665 -0.729502,1.31544 -0.729492,2.27637 l 0,5.56348 -1.625977,0 0,-5.88867 c -8e-6,-0.94922 -0.167,-1.64941 -0.500976,-2.10059 -0.333992,-0.45702 -0.849616,-0.68554 -1.546875,-0.68555 -0.826177,10e-6 -1.482427,0.28126 -1.96875,0.84375 -0.486332,0.55665 -0.729496,1.31251 -0.729493,2.26758 l 0,5.56348 -1.625976,0 0,-9.84375 1.625976,0 0,1.5293 c 0.369137,-0.60351 0.81152,-1.04882 1.327149,-1.33594 0.51562,-0.2871 1.127924,-0.43066 1.836914,-0.43067 0.714837,10e-6 1.321281,0.18165 1.819336,0.54493 0.503897,0.36329 0.875967,0.89063 1.116211,1.58203"
         style="stroke:none"
         id="path3978" />
      <path
         d="m 112.3439,323.4332 c 0.40429,-0.72656 0.88769,-1.26269 1.4502,-1.6084 0.56249,-0.34569 1.2246,-0.51855 1.98633,-0.51856 1.02537,10e-6 1.81639,0.36037 2.37304,1.08106 0.55663,0.71485 0.83495,1.73438 0.83496,3.05859 l 0,5.94141 -1.62597,0 0,-5.88867 c -2e-5,-0.94336 -0.16701,-1.64355 -0.50098,-2.10059 -0.334,-0.45702 -0.84376,-0.68554 -1.5293,-0.68555 -0.8379,10e-6 -1.50001,0.27833 -1.98632,0.83496 -0.48634,0.55665 -0.72951,1.31544 -0.7295,2.27637 l 0,5.56348 -1.62597,0 0,-5.88867 c -1e-5,-0.94922 -0.167,-1.64941 -0.50098,-2.10059 -0.33399,-0.45702 -0.84962,-0.68554 -1.54687,-0.68555 -0.82618,10e-6 -1.48243,0.28126 -1.96875,0.84375 -0.48634,0.55665 -0.7295,1.31251 -0.7295,2.26758 l 0,5.56348 -1.62597,0 0,-9.84375 1.62597,0 0,1.5293 c 0.36914,-0.60351 0.81152,-1.04882 1.32715,-1.33594 0.51562,-0.2871 1.12793,-0.43066 1.83692,-0.43067 0.71483,10e-6 1.32128,0.18165 1.81933,0.54493 0.5039,0.36329 0.87597,0.89063 1.11621,1.58203"
         style="stroke:none"
         id="path3980" />
    </g>
    <path
       style="fill:#000000;fill-opacity:1;stroke:none"
       d="m 0,324.83506 6.162181,-6.16218 -7e-6,12.32435 z"
       id="rect3129"
       inkscape:connector-curvature="0"
       sodipodi:nodetypes="cccc" />
    <path
       sodipodi:nodetypes="cccc"
       inkscape:connector-curvature="0"
       id="path3132"
       d="m 177.16251,324.83505 -6.16218,6.16218 1e-5,-12.32435 z"
       style="fill:#000000;fill-opacity:1;stroke:none" />
    <rect
       style="fill:#000000;fill-opacity:1;stroke:none"
       id="rect3134"
       width="47.619263"
       height="1.244948"
       x="6.1621809"
       y="324.21259" />
    <rect
       y="324.21259"
       x="123.38107"
       height="1.244948"
       width="47.619263"
       id="rect3136"
       style="fill:#000000;fill-opacity:1;stroke:none" />
    <g
       transform="matrix(0,1,-1,0,0,0)"
       style="font-size:18px;font-style:normal;font-weight:normal;line-height:125%;letter-spacing:0px;word-spacing:0px;fill:#000000;fill-opacity:1;stroke:none;font-family:Sans"
       id="text3148">
      <path
         d="m 458.61581,-155.1042 c 0.84961,0.18165 1.51171,0.55957 1.98633,1.13379 0.48046,0.57422 0.7207,1.2832 0.72071,2.12695 -1e-5,1.29492 -0.44533,2.29688 -1.33594,3.00586 -0.89063,0.70898 -2.15626,1.06348 -3.79688,1.06348 -0.55078,0 -1.11914,-0.0557 -1.70508,-0.167 -0.58008,-0.10547 -1.18066,-0.2666 -1.80175,-0.48339 l 0,-1.71387 c 0.49218,0.28711 1.03124,0.50391 1.61718,0.65039 0.58594,0.14648 1.19824,0.21973 1.83692,0.21973 1.11327,0 1.95995,-0.21973 2.54004,-0.65918 0.58593,-0.43946 0.8789,-1.07813 0.8789,-1.91602 0,-0.77343 -0.27247,-1.37695 -0.81738,-1.81055 -0.53907,-0.43944 -1.292,-0.65917 -2.25879,-0.65918 l -1.52929,0 0,-1.45898 1.5996,0 c 0.87305,10e-6 1.54101,-0.17284 2.00391,-0.51856 0.46288,-0.35155 0.69433,-0.85546 0.69434,-1.51171 -10e-6,-0.67382 -0.24025,-1.18945 -0.72071,-1.54688 -0.47461,-0.36327 -1.15723,-0.54491 -2.04785,-0.54492 -0.48633,1e-5 -1.00781,0.0527 -1.56445,0.1582 -0.55664,0.10548 -1.16895,0.26954 -1.83692,0.49219 l 0,-1.58203 c 0.67383,-0.18749 1.30371,-0.32811 1.88965,-0.42188 0.5918,-0.0937 1.14844,-0.14061 1.66993,-0.14062 1.34764,1e-5 2.41405,0.30763 3.19921,0.92285 0.78515,0.60939 1.17773,1.43556 1.17774,2.47852 -10e-6,0.72657 -0.20802,1.3418 -0.62403,1.8457 -0.41602,0.49805 -1.00782,0.84376 -1.77539,1.03711"
         style="stroke:none"
         id="path3983" />
      <path
         d="m 468.49472,-159.98213 c -0.91407,1e-5 -1.60254,0.45118 -2.06543,1.35351 -0.45703,0.8965 -0.68555,2.24708 -0.68555,4.05176 0,1.79883 0.22852,3.14942 0.68555,4.05176 0.46289,0.89649 1.15136,1.34473 2.06543,1.34473 0.91992,0 1.60839,-0.44824 2.06543,-1.34473 0.46288,-0.90234 0.69433,-2.25293 0.69434,-4.05176 -10e-6,-1.80468 -0.23146,-3.15526 -0.69434,-4.05176 -0.45704,-0.90233 -1.14551,-1.3535 -2.06543,-1.35351 m 0,-1.40625 c 1.4707,1e-5 2.59277,0.58302 3.36621,1.74902 0.77929,1.16017 1.16894,2.84767 1.16895,5.0625 -10e-6,2.20899 -0.38966,3.89649 -1.16895,5.0625 -0.77344,1.16016 -1.89551,1.74024 -3.36621,1.74024 -1.47071,0 -2.59571,-0.58008 -3.375,-1.74024 -0.77344,-1.16601 -1.16016,-2.85351 -1.16016,-5.0625 0,-2.21483 0.38672,-3.90233 1.16016,-5.0625 0.77929,-1.166 1.90429,-1.74901 3.375,-1.74902"
         style="stroke:none"
         id="path3985" />
      <path
         d="m 479.95566,-159.98213 c -0.91407,1e-5 -1.60255,0.45118 -2.06543,1.35351 -0.45704,0.8965 -0.68555,2.24708 -0.68555,4.05176 0,1.79883 0.22851,3.14942 0.68555,4.05176 0.46288,0.89649 1.15136,1.34473 2.06543,1.34473 0.91991,0 1.60839,-0.44824 2.06543,-1.34473 0.46288,-0.90234 0.69433,-2.25293 0.69433,-4.05176 0,-1.80468 -0.23145,-3.15526 -0.69433,-4.05176 -0.45704,-0.90233 -1.14552,-1.3535 -2.06543,-1.35351 m 0,-1.40625 c 1.47069,1e-5 2.59276,0.58302 3.36621,1.74902 0.77929,1.16017 1.16893,2.84767 1.16894,5.0625 -1e-5,2.20899 -0.38965,3.89649 -1.16894,5.0625 -0.77345,1.16016 -1.89552,1.74024 -3.36621,1.74024 -1.47071,0 -2.59571,-0.58008 -3.375,-1.74024 -0.77344,-1.16601 -1.16016,-2.85351 -1.16016,-5.0625 0,-2.21483 0.38672,-3.90233 1.16016,-5.0625 0.77929,-1.166 1.90429,-1.74901 3.375,-1.74902"
         style="stroke:none"
         id="path3987" />
      <path
         d="m 500.78574,-155.98311 c 0.40428,-0.72655 0.88768,-1.26268 1.45019,-1.6084 0.56249,-0.34569 1.2246,-0.51854 1.98633,-0.51855 1.02538,1e-5 1.81639,0.36036 2.37305,1.08105 0.55662,0.71486 0.83494,1.73439 0.83496,3.0586 l 0,5.9414 -1.62598,0 0,-5.88867 c -10e-6,-0.94335 -0.16701,-1.64355 -0.50098,-2.10058 -0.33399,-0.45703 -0.84376,-0.68554 -1.52929,-0.68555 -0.8379,1e-5 -1.50001,0.27833 -1.98633,0.83496 -0.48634,0.55665 -0.7295,1.31544 -0.72949,2.27637 l 0,5.56347 -1.62598,0 0,-5.88867 c -10e-6,-0.94921 -0.167,-1.64941 -0.50098,-2.10058 -0.33399,-0.45703 -0.84961,-0.68554 -1.54687,-0.68555 -0.82618,1e-5 -1.48243,0.28126 -1.96875,0.84375 -0.48633,0.55665 -0.7295,1.3125 -0.72949,2.26758 l 0,5.56347 -1.62598,0 0,-9.84375 1.62598,0 0,1.5293 c 0.36913,-0.60351 0.81152,-1.04882 1.32715,-1.33594 0.51562,-0.2871 1.12792,-0.43065 1.83691,-0.43066 0.71484,1e-5 1.32128,0.18165 1.81934,0.54492 0.50389,0.36329 0.87596,0.89063 1.11621,1.58203"
         style="stroke:none"
         id="path3989" />
      <path
         d="m 518.3287,-155.98311 c 0.40429,-0.72655 0.88769,-1.26268 1.4502,-1.6084 0.56249,-0.34569 1.2246,-0.51854 1.98633,-0.51855 1.02538,1e-5 1.81639,0.36036 2.37305,1.08105 0.55662,0.71486 0.83494,1.73439 0.83496,3.0586 l 0,5.9414 -1.62598,0 0,-5.88867 c -10e-6,-0.94335 -0.16701,-1.64355 -0.50098,-2.10058 -0.33399,-0.45703 -0.84376,-0.68554 -1.52929,-0.68555 -0.83791,1e-5 -1.50001,0.27833 -1.98633,0.83496 -0.48634,0.55665 -0.7295,1.31544 -0.72949,2.27637 l 0,5.56347 -1.62598,0 0,-5.88867 c -10e-6,-0.94921 -0.167,-1.64941 -0.50098,-2.10058 -0.33399,-0.45703 -0.84961,-0.68554 -1.54687,-0.68555 -0.82618,1e-5 -1.48243,0.28126 -1.96875,0.84375 -0.48633,0.55665 -0.7295,1.3125 -0.72949,2.26758 l 0,5.56347 -1.62598,0 0,-9.84375 1.62598,0 0,1.5293 c 0.36913,-0.60351 0.81151,-1.04882 1.32714,-1.33594 0.51562,-0.2871 1.12793,-0.43065 1.83692,-0.43066 0.71483,1e-5 1.32128,0.18165 1.81933,0.54492 0.5039,0.36329 0.87597,0.89063 1.11621,1.58203"
         style="stroke:none"
         id="path3991" />
    </g>
    <path
       sodipodi:nodetypes="cccc"
       inkscape:connector-curvature="0"
       id="path3152"
       d="m 154.58124,394.52386 6.16218,6.16218 -12.32435,-10e-6 z"
       style="fill:#000000;fill-opacity:1;stroke:none" />
    <path
       style="fill:#000000;fill-opacity:1;stroke:none"
       d="m 154.58125,587.68637 -6.16218,-6.16218 12.32435,10e-6 z"
       id="path3154"
       inkscape:connector-curvature="0"
       sodipodi:nodetypes="cccc" />
    <rect
       y="-155.20372"
       x="400.68604"
       height="1.244948"
       width="47.619263"
       id="rect3156"
       style="fill:#000000;fill-opacity:1;stroke:none"
       transform="matrix(0,1,-1,0,0,0)" />
    <rect
       style="fill:#000000;fill-opacity:1;stroke:none"
       id="rect3158"
       width="47.619263"
       height="1.244948"
       x="533.90491"
       y="-155.20372"
       transform="matrix(0,1,-1,0,0,0)" />
    <path
       style="fill:#000000;fill-opacity:1;stroke:none"
       d="m 45.820166,833.53754 5.88264,5.88264 -5.882647,5.88265 -5.882641,-5.88264 z"
       id="rect3993"
       inkscape:connector-curvature="0" />
  </g>
</svg>
